{"glyphs":{"0":{"ha":582,"x_min":0,"x_max":572,"o":"m 289 687 l 334 687 q 557 602 528 687 l 572 503 l 568 224 l 568 179 q 418 5 568 5 l 283 0 l 239 0 q 35 45 64 0 q 0 214 0 95 l 0 493 q 179 682 0 682 l 289 687 m 45 517 l 50 179 q 130 45 50 61 l 134 45 l 368 30 l 383 30 q 523 209 523 30 q 483 617 523 617 q 433 652 457 652 l 373 647 l 174 657 q 45 528 45 644 l 45 517 m 319 458 q 328 393 328 435 l 328 294 q 313 229 328 229 l 254 229 l 244 239 l 244 453 l 319 458 z "},"1":{"ha":413,"x_min":0,"x_max":408,"o":"m 212 686 l 247 686 q 393 630 393 686 l 404 519 l 398 353 l 408 156 q 317 0 408 0 l 292 0 q 106 31 106 0 q 75 166 90 31 l 85 373 q 50 433 85 433 q 0 524 0 433 l 0 539 q 106 670 0 634 q 212 686 159 686 m 60 605 l 56 504 l 56 484 q 126 448 56 472 q 136 383 136 426 l 121 146 q 232 25 121 25 l 252 25 q 358 131 358 25 l 353 433 l 353 524 q 302 650 353 650 l 257 655 l 232 655 q 60 605 135 655 z "},"2":{"ha":577,"x_min":0,"x_max":572,"o":"m 56 684 l 133 679 l 388 689 l 398 689 q 566 490 566 689 l 566 434 q 495 301 549 301 l 495 296 l 551 296 q 572 148 568 296 q 521 10 572 10 q 382 0 471 0 l 210 0 l 117 5 l 46 0 q 0 220 0 85 l 0 250 q 71 424 0 377 q 16 434 16 424 l 16 602 q 56 684 16 651 m 61 536 l 61 459 l 224 495 q 271 469 271 484 l 271 465 q 102 393 271 433 q 61 317 61 379 l 51 194 q 113 31 51 31 l 174 26 l 490 31 q 521 138 521 70 l 521 148 q 505 265 521 265 l 337 224 q 281 250 305 224 q 434 311 281 301 q 521 485 521 357 q 429 648 521 612 q 296 669 376 663 q 71 628 71 654 l 61 536 z "},"3":{"ha":572,"x_min":0,"x_max":557,"o":"m 360 676 l 370 676 q 543 582 515 676 l 553 493 q 473 360 540 360 l 473 355 q 557 222 536 355 l 557 202 q 404 10 534 10 q 291 0 379 0 l 178 0 q 10 54 10 0 q 0 104 1 54 l 0 143 q 35 301 8 301 l 54 306 l 109 296 l 109 414 l 104 419 l 104 425 l 54 419 l 39 419 q 20 533 26 419 q 64 666 30 655 l 69 666 l 360 676 m 69 528 l 79 459 l 84 459 q 241 493 204 493 q 271 479 271 490 l 271 473 q 247 419 271 419 l 187 414 l 163 414 l 158 380 l 158 345 l 163 311 l 247 311 l 262 296 l 262 237 l 252 227 l 247 227 l 79 262 l 64 262 q 50 153 50 199 q 123 35 50 35 l 217 30 l 241 30 q 503 148 444 30 l 513 197 q 425 326 513 310 q 380 360 380 343 q 473 410 380 378 q 503 484 503 446 l 503 493 q 414 642 503 595 l 113 642 q 69 528 69 615 m 178 281 l 178 276 l 212 267 l 212 281 l 178 281 z "},"4":{"ha":696,"x_min":0,"x_max":677,"o":"m 241 692 l 549 692 q 595 564 586 692 l 589 395 q 615 369 595 369 l 656 374 q 677 277 677 359 l 671 164 q 595 144 659 151 l 600 92 q 451 0 600 0 q 272 62 272 0 q 262 113 262 62 l 262 138 l 123 134 q 0 241 0 134 l 0 256 q 164 687 0 403 l 241 692 m 205 661 q 102 431 164 616 q 56 262 56 340 q 134 164 56 164 l 302 164 l 313 154 l 313 123 q 385 36 313 36 l 415 31 q 533 72 533 31 l 554 180 l 615 180 l 625 190 l 625 333 l 615 344 l 579 344 q 543 410 543 344 l 543 574 q 492 661 543 661 l 441 667 l 205 661 m 298 508 l 313 492 l 313 354 q 246 338 313 342 q 195 354 195 344 q 262 508 195 486 l 298 508 m 256 420 l 246 374 l 251 369 l 262 369 l 267 395 l 262 420 l 256 420 z "},"5":{"ha":587,"x_min":0,"x_max":560,"o":"m 139 689 l 149 689 l 427 674 l 506 679 q 545 550 545 636 q 520 451 538 451 l 416 451 l 416 446 q 535 397 535 446 q 560 233 555 391 q 486 25 560 57 q 362 0 440 0 l 84 15 l 39 10 q 0 139 0 65 l 0 163 q 35 253 0 220 l 35 262 l 10 277 l 15 332 l 0 555 l 0 575 q 64 679 10 679 q 139 689 64 688 m 79 635 q 60 526 60 593 l 60 471 l 64 298 l 99 288 l 238 292 q 277 253 277 286 l 277 248 q 223 223 277 231 l 64 223 l 60 149 l 60 124 q 104 50 60 50 l 302 35 q 511 218 511 35 l 511 238 q 401 421 511 421 l 397 416 l 367 416 q 288 446 304 416 l 288 461 q 352 486 288 479 l 471 481 l 481 481 l 496 555 l 496 565 q 327 659 496 659 q 79 635 212 654 m 50 258 l 50 253 l 99 253 l 109 262 l 75 262 l 50 258 z "},"6":{"ha":577,"x_min":0,"x_max":573,"o":"m 171 689 l 196 689 l 523 674 q 558 558 558 653 q 533 452 558 452 l 468 452 l 468 448 q 573 281 573 448 l 573 211 q 437 0 573 0 l 418 0 l 287 5 l 176 0 q 15 131 15 0 q 0 367 0 223 l 0 452 q 50 654 0 614 q 171 689 98 689 m 56 523 l 56 503 l 65 327 l 65 201 q 156 30 65 30 l 427 30 q 518 201 505 30 l 518 262 q 437 422 511 422 l 317 418 q 277 448 283 431 l 277 458 q 337 483 277 478 l 463 478 q 508 528 508 478 l 508 553 q 468 654 508 625 l 402 649 l 191 659 q 56 523 56 659 m 337 452 l 337 448 l 422 448 l 422 452 l 337 452 m 287 277 l 297 277 q 332 256 323 277 l 332 221 l 317 206 l 256 206 q 241 237 241 211 q 287 277 241 269 z "},"7":{"ha":572,"x_min":0,"x_max":552,"o":"m 324 694 l 365 694 q 542 659 542 694 l 552 542 q 441 15 552 396 q 269 0 367 0 q 121 25 132 0 l 121 61 q 203 415 121 150 l 177 420 l 117 420 q 10 466 10 420 q 0 532 0 489 l 0 572 q 61 679 0 679 l 324 694 m 61 633 l 56 532 l 56 511 q 132 451 56 451 l 248 451 l 258 441 l 172 61 l 172 45 q 238 31 197 31 l 370 31 q 456 309 403 31 q 501 517 501 429 l 501 557 q 476 653 496 646 l 218 663 q 61 633 132 663 z "},"8":{"ha":622,"x_min":0,"x_max":603,"o":"m 182 704 l 197 704 l 425 689 l 481 699 q 587 522 560 699 l 587 501 q 527 375 581 382 l 527 365 q 603 223 603 328 l 603 187 q 501 15 587 15 l 218 0 q 15 96 15 17 q 0 193 2 113 l 0 218 q 81 370 0 322 q 10 511 10 395 q 182 704 10 704 m 61 517 l 61 476 q 157 400 61 408 q 197 375 184 400 q 96 329 197 329 q 51 228 51 296 l 51 208 q 218 25 51 25 l 223 25 l 446 45 l 476 41 q 557 218 557 97 q 431 339 557 339 q 410 355 410 347 l 410 380 q 491 405 410 388 q 537 491 537 450 l 537 507 q 405 669 537 643 q 309 679 405 677 q 61 517 61 679 m 294 507 q 349 481 349 498 l 349 456 q 289 435 349 435 q 253 471 253 435 q 294 507 253 503 m 273 299 l 319 299 q 349 283 349 296 l 349 248 q 314 228 341 228 l 279 228 q 258 263 265 228 q 273 299 263 299 z "},"9":{"ha":582,"x_min":0,"x_max":572,"o":"m 161 683 l 467 677 q 572 432 572 650 l 572 281 q 527 45 572 45 q 472 0 527 37 l 60 0 q 15 125 24 0 q 45 226 15 226 l 80 226 q 0 452 0 292 l 0 492 q 161 683 0 683 m 50 422 l 50 407 q 165 261 50 261 q 296 236 296 261 q 241 196 296 201 l 121 206 q 71 140 71 206 l 71 130 q 100 35 78 35 l 105 35 l 357 20 q 512 171 512 20 l 507 326 l 507 477 q 432 648 498 648 l 372 648 l 211 658 q 85 583 115 658 q 50 422 50 505 m 286 482 l 291 482 q 326 462 318 482 l 326 427 l 311 412 l 256 412 l 241 427 l 241 442 q 286 482 241 482 z "}," ":{"ha":386,"x_min":0,"x_max":0,"o":""},"!":{"ha":386,"x_min":34,"x_max":359,"o":"m 174 684 l 224 684 q 359 659 359 684 l 359 579 l 334 270 q 353 135 353 212 q 319 25 353 25 q 163 0 231 0 l 144 0 q 34 115 34 0 q 69 264 34 186 q 34 555 34 458 l 34 604 q 64 674 34 674 q 174 684 106 684 m 84 649 l 84 644 q 129 255 84 372 q 89 145 89 227 l 89 130 q 114 40 89 85 l 189 35 l 219 35 q 298 85 298 35 l 304 125 l 304 150 q 274 264 304 204 q 313 585 313 420 l 313 634 q 264 665 294 665 l 229 665 l 84 649 z "},"\"":{"ha":493,"x_min":0,"x_max":0,"o":""},"#":{"ha":772,"x_min":0,"x_max":0,"o":""},"$":{"ha":772,"x_min":0,"x_max":0,"o":""},"%":{"ha":1235,"x_min":0,"x_max":0,"o":""},"&":{"ha":926,"x_min":0,"x_max":0,"o":""},"'":{"ha":265,"x_min":0,"x_max":0,"o":""},"(":{"ha":258,"x_min":27,"x_max":237,"o":"m 167 679 l 192 679 l 237 634 l 237 604 q 162 469 162 547 q 152 345 155 469 q 212 105 152 142 q 237 80 225 105 l 237 65 q 172 0 220 0 q 27 250 48 0 l 27 389 q 92 649 27 596 q 167 679 142 679 m 82 245 q 172 60 95 60 l 177 60 q 107 355 107 151 l 107 429 q 167 599 107 569 q 177 624 177 599 l 162 639 q 92 439 92 616 l 82 245 z "},")":{"ha":229,"x_min":7,"x_max":213,"o":"m 82 679 l 92 679 q 213 382 213 679 l 213 332 q 138 25 213 60 q 92 0 138 10 l 67 0 q 7 56 7 14 l 7 65 q 72 146 7 86 q 92 337 92 228 l 92 347 q 57 553 92 513 l 7 604 l 7 623 q 82 679 7 670 m 67 629 q 107 568 67 607 q 142 337 130 568 q 82 85 142 126 l 67 65 l 67 56 l 82 56 q 168 317 168 114 l 168 377 q 72 629 155 629 l 67 629 z "},"*":{"ha":541,"x_min":0,"x_max":0,"o":""},"+":{"ha":811,"x_min":0,"x_max":0,"o":""},",":{"ha":204,"x_min":30,"x_max":160,"o":"m 87 135 l 103 135 q 160 70 160 135 q 106 -25 160 -8 l 87 -25 q 71 -1 71 -16 l 71 7 q 30 51 38 7 l 30 78 q 87 135 41 135 m 57 70 q 98 24 57 24 q 106 18 106 24 l 103 5 l 106 2 l 109 2 q 130 64 130 33 l 130 81 q 100 116 130 116 l 90 116 q 57 70 62 116 z "},"-":{"ha":463,"x_min":0,"x_max":0,"o":""},".":{"ha":154,"x_min":0,"x_max":130,"o":"m 60 125 l 73 125 q 130 68 130 125 l 130 65 q 92 3 130 3 l 62 0 q 0 46 0 0 l 0 65 q 60 125 11 125 m 27 54 q 46 16 27 31 l 71 16 q 103 65 99 16 q 71 109 103 109 l 68 109 q 27 54 36 109 z "},"/":{"ha":386,"x_min":0,"x_max":0,"o":""},":":{"ha":386,"x_min":0,"x_max":0,"o":""},";":{"ha":386,"x_min":0,"x_max":0,"o":""},"<":{"ha":811,"x_min":0,"x_max":0,"o":""},"=":{"ha":811,"x_min":0,"x_max":0,"o":""},">":{"ha":811,"x_min":0,"x_max":0,"o":""},"?":{"ha":567,"x_min":0,"x_max":537,"o":"m 340 684 l 380 684 q 527 572 487 684 l 537 496 l 537 476 q 426 264 537 314 l 406 258 l 410 121 q 375 0 410 33 l 147 0 q 117 66 117 22 l 117 96 l 132 243 l 127 355 l 127 359 q 142 395 127 376 l 66 390 l 31 390 q 0 507 4 394 l 0 537 q 41 674 3 654 l 340 684 m 96 644 l 86 644 q 51 552 51 616 l 51 496 q 66 420 54 427 l 203 446 l 248 446 l 264 431 q 182 370 264 392 l 172 304 l 187 248 l 172 187 l 172 51 q 243 20 195 20 q 345 45 345 28 l 355 86 l 355 137 q 334 264 355 198 l 441 330 q 492 466 492 380 l 492 481 q 324 664 475 664 l 96 644 z "},"@":{"ha":1410,"x_min":0,"x_max":0,"o":""},"A":{"ha":682,"x_min":0,"x_max":667,"o":"m 395 686 l 425 686 q 543 587 517 686 l 667 99 l 667 35 q 513 0 667 8 q 340 20 376 7 q 212 5 298 5 l 113 5 q 0 24 0 9 l 0 84 q 143 622 0 191 q 182 667 163 667 l 395 686 m 247 642 l 232 642 l 227 647 l 222 647 q 45 54 146 496 q 138 30 87 30 l 281 39 l 286 64 l 286 217 q 301 271 286 271 l 366 271 q 380 193 380 271 l 380 45 l 494 30 l 617 50 q 425 652 493 652 l 390 656 l 247 642 m 306 474 l 361 474 l 375 459 l 375 435 q 361 400 375 418 l 336 405 l 301 405 l 286 420 q 306 474 292 474 z "},"B":{"ha":597,"x_min":14,"x_max":591,"o":"m 83 692 l 392 686 q 566 617 566 677 q 581 543 577 617 l 581 468 q 536 353 581 414 q 591 189 591 267 q 342 0 591 0 l 302 0 q 24 50 24 0 l 14 164 l 18 294 l 14 567 q 83 692 14 692 m 63 507 l 63 468 l 58 134 q 168 35 58 35 l 262 30 l 282 30 q 496 75 455 30 q 536 204 536 131 q 467 343 536 286 l 467 349 q 531 503 531 408 l 531 507 q 382 656 531 656 l 302 662 l 287 662 q 73 617 73 662 q 63 507 63 575 m 297 498 l 322 498 q 342 453 342 491 l 342 438 q 312 423 337 423 l 267 423 q 252 463 252 426 q 297 498 267 498 m 277 273 l 327 273 q 342 219 342 273 q 302 204 339 204 l 292 204 q 252 219 256 204 l 252 249 l 277 273 z "},"C":{"ha":587,"x_min":14,"x_max":559,"o":"m 162 684 l 212 684 l 475 689 q 559 550 559 689 q 509 391 551 411 l 494 391 q 340 421 423 391 l 340 416 l 336 387 l 336 277 q 499 307 447 307 l 509 307 q 559 139 559 274 q 455 10 559 10 q 291 0 396 0 q 58 35 96 0 q 14 213 14 81 l 18 337 l 14 491 l 14 541 q 93 674 14 654 l 162 684 m 68 496 l 68 387 l 73 327 l 68 268 l 68 154 q 153 50 68 50 q 261 35 182 35 l 301 35 q 499 99 499 35 l 505 163 q 475 273 505 234 q 336 243 380 243 l 331 243 q 291 258 294 243 l 291 441 l 301 451 l 331 451 q 479 427 382 451 q 505 541 505 490 l 505 545 q 415 659 505 659 l 316 654 l 182 659 q 68 496 68 659 z "},"D":{"ha":637,"x_min":14,"x_max":621,"o":"m 312 686 l 422 686 q 610 522 610 686 l 621 334 q 576 55 621 55 q 392 0 532 0 l 377 0 q 39 30 39 14 q 14 209 14 103 l 14 517 q 78 677 14 677 q 312 686 170 686 m 68 522 l 68 174 q 113 40 68 40 l 193 35 l 476 35 q 571 243 571 75 l 571 304 q 467 652 571 652 l 377 662 q 83 627 83 646 q 68 522 68 575 m 317 463 q 357 448 354 463 l 357 239 q 327 224 352 224 l 302 224 l 277 229 l 272 403 q 317 463 272 463 z "},"E":{"ha":572,"x_min":7,"x_max":546,"o":"m 47 680 l 347 684 l 361 684 q 526 659 526 684 l 531 594 l 531 534 q 511 469 528 469 l 341 469 q 387 454 341 458 l 501 460 q 541 370 541 460 l 541 365 q 491 275 541 275 l 366 275 l 366 270 q 526 250 526 270 q 546 165 546 200 l 546 115 q 476 5 546 5 l 277 0 q 37 25 37 0 q 7 155 7 68 l 7 534 q 47 680 7 624 m 52 315 q 102 40 52 40 q 212 30 144 30 l 296 30 l 471 35 q 496 120 496 75 l 496 170 q 431 245 496 245 l 421 245 l 332 240 q 271 270 289 240 l 271 290 l 286 304 l 456 304 q 491 370 491 304 l 491 389 q 461 435 491 435 l 341 425 q 271 460 293 425 l 271 469 q 357 494 275 488 l 427 490 l 471 494 q 486 585 486 543 q 441 654 486 654 l 252 659 q 72 619 72 659 q 52 315 52 457 z "},"F":{"ha":557,"x_min":14,"x_max":551,"o":"m 168 682 l 361 682 q 536 656 536 682 l 541 597 l 541 547 q 516 467 541 467 l 347 473 q 397 458 347 458 l 496 463 q 551 378 551 463 q 506 279 551 279 l 342 279 q 327 214 327 279 l 327 75 q 242 10 327 10 l 123 0 l 118 0 q 14 104 14 0 l 18 522 l 18 542 q 83 676 18 676 l 168 682 m 63 383 q 88 60 70 85 q 182 30 121 30 l 212 30 q 287 115 287 30 l 277 258 q 297 309 281 309 l 421 303 q 491 333 491 303 l 496 373 q 481 433 494 433 l 327 428 q 282 473 282 437 q 327 492 289 492 l 456 492 q 486 532 486 492 l 486 616 l 481 652 l 332 656 l 252 656 q 88 627 88 656 q 63 383 63 516 z "},"G":{"ha":577,"x_min":7,"x_max":560,"o":"m 193 689 l 223 689 l 515 669 q 540 523 540 606 l 525 412 q 560 206 560 351 l 560 166 q 500 5 560 5 l 459 0 l 298 0 q 32 90 32 0 q 7 488 7 90 q 77 669 7 633 q 193 689 124 689 m 52 468 l 67 221 l 62 131 q 233 30 62 43 l 273 25 l 469 35 q 500 106 500 52 q 510 201 510 106 q 465 377 510 377 l 414 387 q 369 347 378 387 q 454 307 369 326 l 454 281 q 389 252 454 261 q 288 297 288 252 l 283 362 l 283 402 q 298 468 283 468 l 344 468 q 479 433 388 468 l 490 538 q 429 644 490 644 q 238 664 330 664 q 82 604 129 664 q 52 468 52 542 m 334 437 l 334 408 l 349 412 l 394 408 l 409 412 l 409 418 l 334 437 z "},"H":{"ha":612,"x_min":7,"x_max":597,"o":"m 176 674 l 547 674 q 591 550 591 640 l 597 163 q 537 10 583 10 l 408 0 q 309 25 336 0 q 220 5 274 5 l 131 5 q 32 35 32 5 q 7 154 7 75 l 7 526 q 56 664 7 664 q 176 674 100 674 m 56 535 l 56 178 q 125 25 56 55 l 176 25 q 254 64 254 25 l 254 183 q 275 243 254 243 l 329 243 l 344 223 l 339 119 l 339 114 q 378 35 339 35 l 438 30 q 532 79 532 30 l 542 198 l 537 337 l 542 520 q 483 644 542 644 l 418 649 q 344 625 344 649 l 339 580 l 339 575 l 344 500 q 324 446 339 446 l 290 446 q 254 491 254 446 l 254 614 q 180 649 254 649 l 136 649 q 61 580 61 649 l 56 535 z "},"I":{"ha":328,"x_min":7,"x_max":320,"o":"m 58 687 l 269 687 q 315 546 315 656 l 320 116 q 214 0 320 0 l 47 10 q 7 217 7 47 l 7 546 q 58 687 7 661 m 62 187 q 103 41 62 41 l 174 31 q 260 116 260 31 l 264 167 l 260 323 l 264 530 q 189 662 264 662 l 133 662 q 62 551 62 662 l 62 187 z "},"J":{"ha":572,"x_min":20,"x_max":555,"o":"m 353 679 l 402 679 q 551 619 551 679 l 555 525 l 555 183 q 471 15 555 43 q 357 0 421 0 l 308 0 q 40 39 40 7 q 20 159 26 39 l 20 208 q 85 327 20 327 l 100 327 q 229 292 136 327 l 233 352 l 233 640 q 353 679 267 679 m 273 550 l 288 327 q 243 258 288 258 l 233 258 l 90 292 q 65 139 65 228 q 149 30 65 30 l 238 25 l 278 25 q 476 75 448 25 q 511 223 511 142 l 506 347 l 511 520 q 446 644 511 644 l 353 654 q 273 550 273 654 z "},"K":{"ha":617,"x_min":7,"x_max":594,"o":"m 47 678 l 417 684 q 594 628 594 684 l 594 597 q 528 349 594 545 l 463 339 l 463 334 l 518 334 q 569 197 530 334 q 594 96 581 197 l 594 66 q 564 0 594 26 l 214 0 q 27 25 35 0 q 7 162 7 95 l 7 536 q 47 678 7 646 m 58 542 l 58 345 l 52 167 q 123 31 52 31 l 174 25 q 245 56 245 25 l 250 91 l 245 182 q 280 243 245 243 l 315 243 q 336 182 336 243 l 336 117 l 331 96 q 361 31 331 31 l 457 25 q 549 66 538 25 l 483 309 l 437 309 q 391 334 391 309 q 407 365 398 365 l 452 365 q 498 441 486 365 q 538 597 538 526 l 538 638 q 427 659 485 659 q 336 633 336 659 l 336 507 q 321 441 336 441 l 260 441 l 245 456 l 245 486 l 250 572 q 220 653 250 653 l 159 659 q 68 608 68 659 q 58 542 58 585 z "},"L":{"ha":562,"x_min":7,"x_max":562,"o":"m 116 684 l 146 684 q 329 659 329 684 q 349 551 344 616 l 344 337 l 344 298 q 493 328 456 328 q 552 253 552 328 q 562 163 562 228 l 562 114 q 522 10 562 53 l 503 15 l 215 0 l 185 0 q 7 193 7 0 l 7 213 l 26 560 l 26 566 l 17 650 q 116 684 57 684 m 71 630 l 76 595 l 56 228 q 220 30 56 30 l 250 25 q 493 54 493 43 q 513 184 513 98 q 483 292 505 292 l 339 258 l 334 258 q 294 288 294 258 l 290 352 l 290 392 l 294 526 q 245 654 294 654 l 106 654 l 71 630 z "},"M":{"ha":850,"x_min":0,"x_max":865,"o":"m 322 694 q 422 639 422 694 q 549 694 458 694 l 584 694 q 705 654 705 694 q 865 100 749 545 l 865 15 l 861 10 l 861 5 l 558 0 l 267 0 l 5 5 l 0 10 l 0 65 q 146 634 0 168 q 216 689 166 689 l 322 694 m 50 35 q 156 25 77 25 l 181 25 l 227 31 l 231 25 l 252 31 l 307 231 l 312 237 l 372 237 l 382 227 l 382 221 l 352 31 l 422 25 q 518 40 518 25 l 483 212 l 483 227 q 528 241 483 241 q 578 151 570 241 q 618 31 599 31 l 720 25 q 815 45 765 25 q 689 538 765 304 q 629 659 645 659 l 593 664 q 493 634 493 664 l 453 493 l 448 488 l 443 488 q 377 629 387 488 q 292 664 349 664 q 191 604 191 664 q 50 35 50 127 z "},"N":{"ha":597,"x_min":0,"x_max":588,"o":"m 96 694 l 267 679 l 467 694 l 533 694 q 588 523 578 675 l 583 463 l 588 100 q 538 10 573 10 l 422 0 q 332 25 332 9 q 181 0 290 0 l 176 0 q 15 40 15 0 q 0 292 0 171 l 0 367 q 25 673 3 673 q 96 694 55 694 m 40 492 l 56 206 l 56 116 q 125 30 56 30 l 271 30 l 271 35 l 206 211 l 206 236 q 246 252 227 252 q 357 71 308 252 q 448 30 376 30 q 528 81 528 30 l 538 176 l 533 302 l 533 352 l 538 513 q 473 664 538 664 l 327 664 l 327 659 q 377 523 327 635 l 382 498 l 382 467 l 367 452 q 256 583 278 452 q 171 669 235 669 l 146 669 q 40 492 40 669 z "},"O":{"ha":612,"x_min":0,"x_max":587,"o":"m 262 679 l 334 679 q 528 631 528 679 q 587 345 587 548 l 587 325 q 446 5 587 5 l 412 0 l 277 5 l 194 5 q 20 117 20 5 q 0 359 0 216 l 0 456 q 151 669 0 669 q 262 679 175 679 m 54 465 q 83 87 54 87 q 296 24 83 24 q 490 58 454 24 q 528 214 528 107 l 528 490 q 456 625 528 606 q 262 650 456 637 q 83 591 111 650 q 54 465 54 540 m 267 456 l 320 456 l 330 446 l 330 271 q 315 218 330 218 l 271 218 q 248 311 250 218 q 267 456 248 456 z "},"P":{"ha":567,"x_min":0,"x_max":557,"o":"m 319 687 l 353 687 q 553 612 503 687 l 553 602 l 557 602 l 553 577 l 557 363 q 468 239 557 260 l 368 239 q 338 189 338 239 q 289 10 338 10 l 184 0 q 20 40 20 0 q 0 140 0 90 l 0 289 l 5 334 l 0 383 l 0 532 q 60 672 0 672 l 319 687 m 75 647 q 50 538 50 591 l 50 279 l 45 189 q 119 30 45 30 l 199 30 q 279 79 279 30 l 283 124 l 283 234 q 298 264 287 264 l 413 264 q 517 443 517 282 l 517 513 q 358 662 517 662 l 343 662 l 75 647 m 279 483 l 309 483 l 323 468 l 323 428 l 309 413 l 254 413 q 239 443 239 418 q 279 483 239 483 z "},"Q":{"ha":607,"x_min":0,"x_max":581,"o":"m 249 689 l 347 689 q 518 655 484 689 q 581 367 581 621 l 581 294 q 537 64 581 100 q 435 15 507 15 l 435 10 l 459 -87 l 459 -107 l 450 -121 l 254 -127 l 239 -127 q 113 -107 113 -124 l 113 -92 l 142 5 l 137 5 q 0 239 0 5 l 0 508 q 146 684 0 684 l 249 689 m 34 347 q 88 73 45 73 q 328 30 119 36 q 494 88 460 30 q 532 313 532 182 l 532 367 q 395 660 532 660 l 322 665 q 78 611 78 652 q 34 347 44 611 m 273 465 l 293 465 q 322 450 322 461 l 322 401 l 328 259 q 313 235 321 235 l 259 235 q 249 250 249 235 l 244 406 q 273 465 244 447 m 200 20 q 166 -97 166 -63 l 410 -97 l 410 -92 q 371 15 380 15 l 235 15 l 200 20 z "},"R":{"ha":592,"x_min":0,"x_max":587,"o":"m 45 683 l 65 683 l 121 677 q 391 688 227 688 q 583 507 583 688 q 542 357 583 402 q 587 171 587 295 q 537 5 579 24 l 512 10 l 416 5 l 347 5 q 286 35 314 5 q 171 0 286 10 q 10 60 10 0 l 0 171 l 0 542 q 45 683 1 652 m 45 497 l 50 307 l 50 155 q 111 30 50 30 l 151 25 q 241 85 241 25 l 246 130 l 241 226 l 241 236 l 256 251 l 296 251 q 326 236 326 248 l 326 96 q 376 35 326 35 l 416 30 l 441 30 q 527 80 527 30 l 537 171 l 537 180 q 482 357 537 287 q 532 482 532 409 l 532 527 q 321 667 532 647 l 286 667 q 71 637 71 667 q 45 497 55 603 m 256 497 l 311 497 l 326 482 l 326 447 q 291 427 326 435 q 241 441 241 432 l 241 467 q 256 497 244 497 z "},"S":{"ha":562,"x_min":0,"x_max":567,"o":"m 180 692 l 201 692 l 496 677 l 512 682 q 547 602 547 654 l 547 427 q 502 412 547 412 q 567 236 567 354 l 567 226 q 456 0 567 50 l 421 5 l 201 0 q 20 25 20 0 l 10 85 l 10 261 l 15 266 l 60 281 l 60 286 q 0 437 0 333 l 0 467 q 180 692 0 692 m 40 437 q 115 301 40 330 q 266 226 266 285 q 221 211 247 211 l 216 211 l 65 246 l 55 125 q 71 35 55 89 l 96 40 l 336 20 l 346 20 q 522 241 522 20 l 522 266 q 346 401 522 401 q 281 467 281 424 l 336 481 q 492 437 368 481 q 507 537 507 473 l 507 557 q 456 657 499 657 l 256 663 q 60 557 89 663 q 40 437 46 517 z "},"T":{"ha":592,"x_min":0,"x_max":589,"o":"m 125 684 l 499 689 q 589 569 589 689 q 544 399 576 399 l 505 395 l 450 395 l 450 110 q 404 10 450 10 l 319 0 q 150 30 150 0 q 125 145 125 94 l 130 389 l 125 389 q 10 419 10 398 l 0 529 l 0 569 q 80 684 0 684 l 125 684 m 45 554 q 70 429 54 429 l 80 429 l 160 439 l 165 439 q 180 410 173 439 l 175 215 l 175 175 q 245 30 175 30 l 300 30 q 385 55 385 30 q 404 155 404 96 l 399 370 q 425 444 399 444 l 509 425 q 539 539 539 467 q 499 649 528 649 l 465 649 l 170 669 q 60 619 60 663 q 45 554 49 619 z "},"U":{"ha":572,"x_min":0,"x_max":557,"o":"m 24 676 l 271 681 l 365 681 q 547 656 547 681 l 557 518 l 553 399 l 557 217 q 498 30 557 77 q 267 0 443 0 q 54 44 54 0 q 0 256 0 93 l 0 296 l 20 671 l 24 676 m 54 642 l 59 568 l 59 523 l 39 237 q 109 69 50 69 q 316 24 178 24 q 484 84 450 24 q 513 232 513 145 l 513 271 l 498 616 l 498 651 l 425 656 l 404 656 q 326 636 326 656 l 321 568 l 326 306 q 296 252 315 252 l 262 252 q 237 355 239 252 l 237 602 q 222 651 237 651 l 173 656 l 74 656 l 54 642 z "},"V":{"ha":667,"x_min":0,"x_max":652,"o":"m 151 682 l 195 682 q 321 667 286 682 q 441 682 379 682 l 501 682 q 647 647 647 682 l 652 587 q 551 80 652 515 q 466 5 528 5 l 366 0 q 136 20 136 0 q 30 411 95 74 q 0 566 0 486 l 0 587 q 50 677 0 677 l 151 682 m 45 606 q 191 35 140 109 l 316 30 l 371 30 q 486 65 486 30 q 597 602 597 494 q 587 642 593 642 l 526 652 l 451 652 l 376 647 l 371 572 l 371 306 q 346 241 371 241 l 301 235 l 286 245 l 271 647 l 266 647 l 115 656 q 45 606 45 656 z "},"W":{"ha":858,"x_min":0,"x_max":846,"o":"m 193 689 l 435 684 l 491 689 q 562 673 532 673 l 749 694 l 770 694 q 846 659 814 694 q 709 15 846 498 q 557 0 619 0 l 542 0 q 425 71 425 0 l 420 71 q 345 5 420 5 l 263 0 q 132 41 132 0 q 0 567 101 81 l 0 633 q 51 679 0 679 q 193 689 100 689 m 56 648 q 187 41 56 486 l 258 31 q 359 61 359 31 q 405 203 380 149 l 431 197 l 451 203 q 522 35 485 35 l 552 31 l 653 35 q 785 583 704 123 l 785 653 l 749 659 l 659 659 q 593 613 593 659 q 511 451 566 451 q 471 476 471 456 l 507 643 l 507 653 l 471 659 l 370 659 l 334 653 l 334 648 l 370 481 l 370 461 l 359 451 l 329 451 q 253 613 268 451 l 248 628 q 182 659 239 659 l 101 659 l 56 648 z "},"X":{"ha":671,"x_min":0,"x_max":662,"o":"m 132 687 l 212 687 q 328 672 282 687 q 520 692 450 692 l 551 692 q 652 616 652 692 l 652 596 q 576 344 652 526 q 662 51 662 171 l 662 25 q 485 0 646 0 l 334 15 q 146 0 232 0 l 132 0 q 0 31 0 5 l 0 45 q 86 354 0 153 q 15 637 15 454 q 132 687 15 687 m 66 627 q 126 379 66 528 l 167 374 l 172 379 l 177 379 q 207 363 207 372 l 207 338 q 177 323 202 323 l 126 323 q 56 51 56 119 l 56 35 l 157 31 l 222 31 l 243 35 l 262 31 l 278 31 l 288 76 l 288 182 q 303 248 288 248 l 344 248 q 379 227 371 248 l 379 161 l 374 111 l 379 66 l 379 51 q 515 31 379 31 q 611 56 611 31 q 526 328 603 158 l 465 328 l 450 344 l 450 359 l 465 374 l 500 374 q 551 425 551 374 q 591 631 591 528 q 495 662 585 657 q 374 627 374 662 l 369 602 l 374 460 l 369 455 l 298 455 q 283 495 283 458 l 283 616 q 248 657 283 657 l 182 662 q 66 627 75 654 z "},"Y":{"ha":707,"x_min":0,"x_max":707,"o":"m 136 692 l 167 692 q 343 676 260 692 q 530 692 445 692 l 566 692 q 707 656 698 688 q 585 267 707 567 q 520 232 520 256 l 515 217 l 520 136 l 520 71 q 419 0 520 0 l 409 0 q 202 35 202 12 l 186 106 l 192 182 l 192 186 q 161 258 192 258 q 96 328 106 258 q 0 661 0 581 q 136 692 33 692 m 45 641 q 172 288 146 336 q 242 227 242 288 l 242 111 q 313 35 242 35 l 343 31 q 459 76 459 31 q 469 126 469 76 l 469 262 q 545 293 469 281 q 651 651 651 593 l 646 651 l 560 661 l 530 661 l 404 656 l 394 575 l 399 490 l 399 449 q 338 429 399 434 q 308 494 308 429 l 308 520 l 313 595 l 303 656 l 167 661 l 126 661 q 45 641 83 661 z "},"Z":{"ha":582,"x_min":0,"x_max":566,"o":"m 51 688 l 229 694 l 352 694 l 530 688 q 566 561 566 646 q 526 403 566 424 q 444 316 444 330 l 449 316 l 546 321 q 566 178 566 285 l 566 158 q 510 16 566 16 l 444 10 l 326 10 l 112 0 q 0 123 0 0 l 0 174 q 112 362 0 300 l 133 388 l 133 393 l 46 393 q 16 520 20 403 l 16 571 q 51 688 16 644 m 123 668 q 66 561 66 661 l 66 505 q 87 418 66 460 q 224 444 181 444 l 229 444 l 229 429 q 81 255 210 395 q 51 148 51 190 q 112 41 51 41 l 240 31 l 260 31 q 500 66 500 31 q 515 168 515 111 l 515 199 l 510 286 l 505 286 l 362 260 l 336 265 l 336 275 q 515 530 515 454 l 515 561 q 439 668 515 668 l 326 673 l 123 668 z "},"[":{"ha":386,"x_min":0,"x_max":0,"o":""},"\\":{"ha":386,"x_min":0,"x_max":0,"o":""},"]":{"ha":386,"x_min":0,"x_max":0,"o":""},"^":{"ha":652,"x_min":0,"x_max":0,"o":""},"_":{"ha":772,"x_min":0,"x_max":0,"o":""},"`":{"ha":463,"x_min":0,"x_max":0,"o":""},"a":{"ha":682,"x_min":0,"x_max":667,"o":"m 395 686 l 425 686 q 543 587 517 686 l 667 99 l 667 35 q 513 0 667 8 q 340 20 376 7 q 212 5 298 5 l 113 5 q 0 24 0 9 l 0 84 q 143 622 0 191 q 182 667 163 667 l 395 686 m 247 642 l 232 642 l 227 647 l 222 647 q 45 54 146 496 q 138 30 87 30 l 281 39 l 286 64 l 286 217 q 301 271 286 271 l 366 271 q 380 193 380 271 l 380 45 l 494 30 l 617 50 q 425 652 493 652 l 390 656 l 247 642 m 306 474 l 361 474 l 375 459 l 375 435 q 361 400 375 418 l 336 405 l 301 405 l 286 420 q 306 474 292 474 z "},"b":{"ha":597,"x_min":14,"x_max":591,"o":"m 83 692 l 392 686 q 566 617 566 677 q 581 543 577 617 l 581 468 q 536 353 581 414 q 591 189 591 267 q 342 0 591 0 l 302 0 q 24 50 24 0 l 14 164 l 18 294 l 14 567 q 83 692 14 692 m 63 507 l 63 468 l 58 134 q 168 35 58 35 l 262 30 l 282 30 q 496 75 455 30 q 536 204 536 131 q 467 343 536 286 l 467 349 q 531 503 531 408 l 531 507 q 382 656 531 656 l 302 662 l 287 662 q 73 617 73 662 q 63 507 63 575 m 297 498 l 322 498 q 342 453 342 491 l 342 438 q 312 423 337 423 l 267 423 q 252 463 252 426 q 297 498 267 498 m 277 273 l 327 273 q 342 219 342 273 q 302 204 339 204 l 292 204 q 252 219 256 204 l 252 249 l 277 273 z "},"c":{"ha":587,"x_min":14,"x_max":559,"o":"m 162 684 l 212 684 l 475 689 q 559 550 559 689 q 509 391 551 411 l 494 391 q 340 421 423 391 l 340 416 l 336 387 l 336 277 q 499 307 447 307 l 509 307 q 559 139 559 274 q 455 10 559 10 q 291 0 396 0 q 58 35 96 0 q 14 213 14 81 l 18 337 l 14 491 l 14 541 q 93 674 14 654 l 162 684 m 68 496 l 68 387 l 73 327 l 68 268 l 68 154 q 153 50 68 50 q 261 35 182 35 l 301 35 q 499 99 499 35 l 505 163 q 475 273 505 234 q 336 243 380 243 l 331 243 q 291 258 294 243 l 291 441 l 301 451 l 331 451 q 479 427 382 451 q 505 541 505 490 l 505 545 q 415 659 505 659 l 316 654 l 182 659 q 68 496 68 659 z "},"d":{"ha":637,"x_min":14,"x_max":621,"o":"m 312 686 l 422 686 q 610 522 610 686 l 621 334 q 576 55 621 55 q 392 0 532 0 l 377 0 q 39 30 39 14 q 14 209 14 103 l 14 517 q 78 677 14 677 q 312 686 170 686 m 68 522 l 68 174 q 113 40 68 40 l 193 35 l 476 35 q 571 243 571 75 l 571 304 q 467 652 571 652 l 377 662 q 83 627 83 646 q 68 522 68 575 m 317 463 q 357 448 354 463 l 357 239 q 327 224 352 224 l 302 224 l 277 229 l 272 403 q 317 463 272 463 z "},"e":{"ha":572,"x_min":7,"x_max":546,"o":"m 47 680 l 347 684 l 361 684 q 526 659 526 684 l 531 594 l 531 534 q 511 469 528 469 l 341 469 q 387 454 341 458 l 501 460 q 541 370 541 460 l 541 365 q 491 275 541 275 l 366 275 l 366 270 q 526 250 526 270 q 546 165 546 200 l 546 115 q 476 5 546 5 l 277 0 q 37 25 37 0 q 7 155 7 68 l 7 534 q 47 680 7 624 m 52 315 q 102 40 52 40 q 212 30 144 30 l 296 30 l 471 35 q 496 120 496 75 l 496 170 q 431 245 496 245 l 421 245 l 332 240 q 271 270 289 240 l 271 290 l 286 304 l 456 304 q 491 370 491 304 l 491 389 q 461 435 491 435 l 341 425 q 271 460 293 425 l 271 469 q 357 494 275 488 l 427 490 l 471 494 q 486 585 486 543 q 441 654 486 654 l 252 659 q 72 619 72 659 q 52 315 52 457 z "},"f":{"ha":557,"x_min":14,"x_max":551,"o":"m 168 682 l 361 682 q 536 656 536 682 l 541 597 l 541 547 q 516 467 541 467 l 347 473 q 397 458 347 458 l 496 463 q 551 378 551 463 q 506 279 551 279 l 342 279 q 327 214 327 279 l 327 75 q 242 10 327 10 l 123 0 l 118 0 q 14 104 14 0 l 18 522 l 18 542 q 83 676 18 676 l 168 682 m 63 383 q 88 60 70 85 q 182 30 121 30 l 212 30 q 287 115 287 30 l 277 258 q 297 309 281 309 l 421 303 q 491 333 491 303 l 496 373 q 481 433 494 433 l 327 428 q 282 473 282 437 q 327 492 289 492 l 456 492 q 486 532 486 492 l 486 616 l 481 652 l 332 656 l 252 656 q 88 627 88 656 q 63 383 63 516 z "},"g":{"ha":577,"x_min":7,"x_max":560,"o":"m 193 689 l 223 689 l 515 669 q 540 523 540 606 l 525 412 q 560 206 560 351 l 560 166 q 500 5 560 5 l 459 0 l 298 0 q 32 90 32 0 q 7 488 7 90 q 77 669 7 633 q 193 689 124 689 m 52 468 l 67 221 l 62 131 q 233 30 62 43 l 273 25 l 469 35 q 500 106 500 52 q 510 201 510 106 q 465 377 510 377 l 414 387 q 369 347 378 387 q 454 307 369 326 l 454 281 q 389 252 454 261 q 288 297 288 252 l 283 362 l 283 402 q 298 468 283 468 l 344 468 q 479 433 388 468 l 490 538 q 429 644 490 644 q 238 664 330 664 q 82 604 129 664 q 52 468 52 542 m 334 437 l 334 408 l 349 412 l 394 408 l 409 412 l 409 418 l 334 437 z "},"h":{"ha":612,"x_min":7,"x_max":597,"o":"m 176 674 l 547 674 q 591 550 591 640 l 597 163 q 537 10 583 10 l 408 0 q 309 25 336 0 q 220 5 274 5 l 131 5 q 32 35 32 5 q 7 154 7 75 l 7 526 q 56 664 7 664 q 176 674 100 674 m 56 535 l 56 178 q 125 25 56 55 l 176 25 q 254 64 254 25 l 254 183 q 275 243 254 243 l 329 243 l 344 223 l 339 119 l 339 114 q 378 35 339 35 l 438 30 q 532 79 532 30 l 542 198 l 537 337 l 542 520 q 483 644 542 644 l 418 649 q 344 625 344 649 l 339 580 l 339 575 l 344 500 q 324 446 339 446 l 290 446 q 254 491 254 446 l 254 614 q 180 649 254 649 l 136 649 q 61 580 61 649 l 56 535 z "},"i":{"ha":328,"x_min":7,"x_max":320,"o":"m 58 687 l 269 687 q 315 546 315 656 l 320 116 q 214 0 320 0 l 47 10 q 7 217 7 47 l 7 546 q 58 687 7 661 m 62 187 q 103 41 62 41 l 174 31 q 260 116 260 31 l 264 167 l 260 323 l 264 530 q 189 662 264 662 l 133 662 q 62 551 62 662 l 62 187 z "},"j":{"ha":572,"x_min":20,"x_max":555,"o":"m 353 679 l 402 679 q 551 619 551 679 l 555 525 l 555 183 q 471 15 555 43 q 357 0 421 0 l 308 0 q 40 39 40 7 q 20 159 26 39 l 20 208 q 85 327 20 327 l 100 327 q 229 292 136 327 l 233 352 l 233 640 q 353 679 267 679 m 273 550 l 288 327 q 243 258 288 258 l 233 258 l 90 292 q 65 139 65 228 q 149 30 65 30 l 238 25 l 278 25 q 476 75 448 25 q 511 223 511 142 l 506 347 l 511 520 q 446 644 511 644 l 353 654 q 273 550 273 654 z "},"k":{"ha":617,"x_min":7,"x_max":594,"o":"m 47 678 l 417 684 q 594 628 594 684 l 594 597 q 528 349 594 545 l 463 339 l 463 334 l 518 334 q 569 197 530 334 q 594 96 581 197 l 594 66 q 564 0 594 26 l 214 0 q 27 25 35 0 q 7 162 7 95 l 7 536 q 47 678 7 646 m 58 542 l 58 345 l 52 167 q 123 31 52 31 l 174 25 q 245 56 245 25 l 250 91 l 245 182 q 280 243 245 243 l 315 243 q 336 182 336 243 l 336 117 l 331 96 q 361 31 331 31 l 457 25 q 549 66 538 25 l 483 309 l 437 309 q 391 334 391 309 q 407 365 398 365 l 452 365 q 498 441 486 365 q 538 597 538 526 l 538 638 q 427 659 485 659 q 336 633 336 659 l 336 507 q 321 441 336 441 l 260 441 l 245 456 l 245 486 l 250 572 q 220 653 250 653 l 159 659 q 68 608 68 659 q 58 542 58 585 z "},"l":{"ha":562,"x_min":7,"x_max":562,"o":"m 116 684 l 146 684 q 329 659 329 684 q 349 551 344 616 l 344 337 l 344 298 q 493 328 456 328 q 552 253 552 328 q 562 163 562 228 l 562 114 q 522 10 562 53 l 503 15 l 215 0 l 185 0 q 7 193 7 0 l 7 213 l 26 560 l 26 566 l 17 650 q 116 684 57 684 m 71 630 l 76 595 l 56 228 q 220 30 56 30 l 250 25 q 493 54 493 43 q 513 184 513 98 q 483 292 505 292 l 339 258 l 334 258 q 294 288 294 258 l 290 352 l 290 392 l 294 526 q 245 654 294 654 l 106 654 l 71 630 z "},"m":{"ha":850,"x_min":0,"x_max":865,"o":"m 322 694 q 422 639 422 694 q 549 694 458 694 l 584 694 q 705 654 705 694 q 865 100 749 545 l 865 15 l 861 10 l 861 5 l 558 0 l 267 0 l 5 5 l 0 10 l 0 65 q 146 634 0 168 q 216 689 166 689 l 322 694 m 50 35 q 156 25 77 25 l 181 25 l 227 31 l 231 25 l 252 31 l 307 231 l 312 237 l 372 237 l 382 227 l 382 221 l 352 31 l 422 25 q 518 40 518 25 l 483 212 l 483 227 q 528 241 483 241 q 578 151 570 241 q 618 31 599 31 l 720 25 q 815 45 765 25 q 689 538 765 304 q 629 659 645 659 l 593 664 q 493 634 493 664 l 453 493 l 448 488 l 443 488 q 377 629 387 488 q 292 664 349 664 q 191 604 191 664 q 50 35 50 127 z "},"n":{"ha":597,"x_min":0,"x_max":588,"o":"m 96 694 l 267 679 l 467 694 l 533 694 q 588 523 578 675 l 583 463 l 588 100 q 538 10 573 10 l 422 0 q 332 25 332 9 q 181 0 290 0 l 176 0 q 15 40 15 0 q 0 292 0 171 l 0 367 q 25 673 3 673 q 96 694 55 694 m 40 492 l 56 206 l 56 116 q 125 30 56 30 l 271 30 l 271 35 l 206 211 l 206 236 q 246 252 227 252 q 357 71 308 252 q 448 30 376 30 q 528 81 528 30 l 538 176 l 533 302 l 533 352 l 538 513 q 473 664 538 664 l 327 664 l 327 659 q 377 523 327 635 l 382 498 l 382 467 l 367 452 q 256 583 278 452 q 171 669 235 669 l 146 669 q 40 492 40 669 z "},"o":{"ha":612,"x_min":0,"x_max":587,"o":"m 262 679 l 334 679 q 528 631 528 679 q 587 345 587 548 l 587 325 q 446 5 587 5 l 412 0 l 277 5 l 194 5 q 20 117 20 5 q 0 359 0 216 l 0 456 q 151 669 0 669 q 262 679 175 679 m 54 465 q 83 87 54 87 q 296 24 83 24 q 490 58 454 24 q 528 214 528 107 l 528 490 q 456 625 528 606 q 262 650 456 637 q 83 591 111 650 q 54 465 54 540 m 267 456 l 320 456 l 330 446 l 330 271 q 315 218 330 218 l 271 218 q 248 311 250 218 q 267 456 248 456 z "},"p":{"ha":567,"x_min":0,"x_max":557,"o":"m 319 687 l 353 687 q 553 612 503 687 l 553 602 l 557 602 l 553 577 l 557 363 q 468 239 557 260 l 368 239 q 338 189 338 239 q 289 10 338 10 l 184 0 q 20 40 20 0 q 0 140 0 90 l 0 289 l 5 334 l 0 383 l 0 532 q 60 672 0 672 l 319 687 m 75 647 q 50 538 50 591 l 50 279 l 45 189 q 119 30 45 30 l 199 30 q 279 79 279 30 l 283 124 l 283 234 q 298 264 287 264 l 413 264 q 517 443 517 282 l 517 513 q 358 662 517 662 l 343 662 l 75 647 m 279 483 l 309 483 l 323 468 l 323 428 l 309 413 l 254 413 q 239 443 239 418 q 279 483 239 483 z "},"q":{"ha":607,"x_min":0,"x_max":581,"o":"m 249 689 l 347 689 q 518 655 484 689 q 581 367 581 621 l 581 294 q 537 64 581 100 q 435 15 507 15 l 435 10 l 459 -87 l 459 -107 l 450 -121 l 254 -127 l 239 -127 q 113 -107 113 -124 l 113 -92 l 142 5 l 137 5 q 0 239 0 5 l 0 508 q 146 684 0 684 l 249 689 m 34 347 q 88 73 45 73 q 328 30 119 36 q 494 88 460 30 q 532 313 532 182 l 532 367 q 395 660 532 660 l 322 665 q 78 611 78 652 q 34 347 44 611 m 273 465 l 293 465 q 322 450 322 461 l 322 401 l 328 259 q 313 235 321 235 l 259 235 q 249 250 249 235 l 244 406 q 273 465 244 447 m 200 20 q 166 -97 166 -63 l 410 -97 l 410 -92 q 371 15 380 15 l 235 15 l 200 20 z "},"r":{"ha":592,"x_min":0,"x_max":587,"o":"m 45 683 l 65 683 l 121 677 q 391 688 227 688 q 583 507 583 688 q 542 357 583 402 q 587 171 587 295 q 537 5 579 24 l 512 10 l 416 5 l 347 5 q 286 35 314 5 q 171 0 286 10 q 10 60 10 0 l 0 171 l 0 542 q 45 683 1 652 m 45 497 l 50 307 l 50 155 q 111 30 50 30 l 151 25 q 241 85 241 25 l 246 130 l 241 226 l 241 236 l 256 251 l 296 251 q 326 236 326 248 l 326 96 q 376 35 326 35 l 416 30 l 441 30 q 527 80 527 30 l 537 171 l 537 180 q 482 357 537 287 q 532 482 532 409 l 532 527 q 321 667 532 647 l 286 667 q 71 637 71 667 q 45 497 55 603 m 256 497 l 311 497 l 326 482 l 326 447 q 291 427 326 435 q 241 441 241 432 l 241 467 q 256 497 244 497 z "},"s":{"ha":562,"x_min":0,"x_max":567,"o":"m 180 692 l 201 692 l 496 677 l 512 682 q 547 602 547 654 l 547 427 q 502 412 547 412 q 567 236 567 354 l 567 226 q 456 0 567 50 l 421 5 l 201 0 q 20 25 20 0 l 10 85 l 10 261 l 15 266 l 60 281 l 60 286 q 0 437 0 333 l 0 467 q 180 692 0 692 m 40 437 q 115 301 40 330 q 266 226 266 285 q 221 211 247 211 l 216 211 l 65 246 l 55 125 q 71 35 55 89 l 96 40 l 336 20 l 346 20 q 522 241 522 20 l 522 266 q 346 401 522 401 q 281 467 281 424 l 336 481 q 492 437 368 481 q 507 537 507 473 l 507 557 q 456 657 499 657 l 256 663 q 60 557 89 663 q 40 437 46 517 z "},"t":{"ha":592,"x_min":0,"x_max":589,"o":"m 125 684 l 499 689 q 589 569 589 689 q 544 399 576 399 l 505 395 l 450 395 l 450 110 q 404 10 450 10 l 319 0 q 150 30 150 0 q 125 145 125 94 l 130 389 l 125 389 q 10 419 10 398 l 0 529 l 0 569 q 80 684 0 684 l 125 684 m 45 554 q 70 429 54 429 l 80 429 l 160 439 l 165 439 q 180 410 173 439 l 175 215 l 175 175 q 245 30 175 30 l 300 30 q 385 55 385 30 q 404 155 404 96 l 399 370 q 425 444 399 444 l 509 425 q 539 539 539 467 q 499 649 528 649 l 465 649 l 170 669 q 60 619 60 663 q 45 554 49 619 z "},"u":{"ha":572,"x_min":0,"x_max":557,"o":"m 24 676 l 271 681 l 365 681 q 547 656 547 681 l 557 518 l 553 399 l 557 217 q 498 30 557 77 q 267 0 443 0 q 54 44 54 0 q 0 256 0 93 l 0 296 l 20 671 l 24 676 m 54 642 l 59 568 l 59 523 l 39 237 q 109 69 50 69 q 316 24 178 24 q 484 84 450 24 q 513 232 513 145 l 513 271 l 498 616 l 498 651 l 425 656 l 404 656 q 326 636 326 656 l 321 568 l 326 306 q 296 252 315 252 l 262 252 q 237 355 239 252 l 237 602 q 222 651 237 651 l 173 656 l 74 656 l 54 642 z "},"v":{"ha":667,"x_min":0,"x_max":652,"o":"m 151 682 l 195 682 q 321 667 286 682 q 441 682 379 682 l 501 682 q 647 647 647 682 l 652 587 q 551 80 652 515 q 466 5 528 5 l 366 0 q 136 20 136 0 q 30 411 95 74 q 0 566 0 486 l 0 587 q 50 677 0 677 l 151 682 m 45 606 q 191 35 140 109 l 316 30 l 371 30 q 486 65 486 30 q 597 602 597 494 q 587 642 593 642 l 526 652 l 451 652 l 376 647 l 371 572 l 371 306 q 346 241 371 241 l 301 235 l 286 245 l 271 647 l 266 647 l 115 656 q 45 606 45 656 z "},"w":{"ha":858,"x_min":0,"x_max":846,"o":"m 193 689 l 435 684 l 491 689 q 562 673 532 673 l 749 694 l 770 694 q 846 659 814 694 q 709 15 846 498 q 557 0 619 0 l 542 0 q 425 71 425 0 l 420 71 q 345 5 420 5 l 263 0 q 132 41 132 0 q 0 567 101 81 l 0 633 q 51 679 0 679 q 193 689 100 689 m 56 648 q 187 41 56 486 l 258 31 q 359 61 359 31 q 405 203 380 149 l 431 197 l 451 203 q 522 35 485 35 l 552 31 l 653 35 q 785 583 704 123 l 785 653 l 749 659 l 659 659 q 593 613 593 659 q 511 451 566 451 q 471 476 471 456 l 507 643 l 507 653 l 471 659 l 370 659 l 334 653 l 334 648 l 370 481 l 370 461 l 359 451 l 329 451 q 253 613 268 451 l 248 628 q 182 659 239 659 l 101 659 l 56 648 z "},"x":{"ha":671,"x_min":0,"x_max":662,"o":"m 132 687 l 212 687 q 328 672 282 687 q 520 692 450 692 l 551 692 q 652 616 652 692 l 652 596 q 576 344 652 526 q 662 51 662 171 l 662 25 q 485 0 646 0 l 334 15 q 146 0 232 0 l 132 0 q 0 31 0 5 l 0 45 q 86 354 0 153 q 15 637 15 454 q 132 687 15 687 m 66 627 q 126 379 66 528 l 167 374 l 172 379 l 177 379 q 207 363 207 372 l 207 338 q 177 323 202 323 l 126 323 q 56 51 56 119 l 56 35 l 157 31 l 222 31 l 243 35 l 262 31 l 278 31 l 288 76 l 288 182 q 303 248 288 248 l 344 248 q 379 227 371 248 l 379 161 l 374 111 l 379 66 l 379 51 q 515 31 379 31 q 611 56 611 31 q 526 328 603 158 l 465 328 l 450 344 l 450 359 l 465 374 l 500 374 q 551 425 551 374 q 591 631 591 528 q 495 662 585 657 q 374 627 374 662 l 369 602 l 374 460 l 369 455 l 298 455 q 283 495 283 458 l 283 616 q 248 657 283 657 l 182 662 q 66 627 75 654 z "},"y":{"ha":707,"x_min":0,"x_max":707,"o":"m 136 692 l 167 692 q 343 676 260 692 q 530 692 445 692 l 566 692 q 707 656 698 688 q 585 267 707 567 q 520 232 520 256 l 515 217 l 520 136 l 520 71 q 419 0 520 0 l 409 0 q 202 35 202 12 l 186 106 l 192 182 l 192 186 q 161 258 192 258 q 96 328 106 258 q 0 661 0 581 q 136 692 33 692 m 45 641 q 172 288 146 336 q 242 227 242 288 l 242 111 q 313 35 242 35 l 343 31 q 459 76 459 31 q 469 126 469 76 l 469 262 q 545 293 469 281 q 651 651 651 593 l 646 651 l 560 661 l 530 661 l 404 656 l 394 575 l 399 490 l 399 449 q 338 429 399 434 q 308 494 308 429 l 308 520 l 313 595 l 303 656 l 167 661 l 126 661 q 45 641 83 661 z "},"z":{"ha":582,"x_min":0,"x_max":566,"o":"m 51 688 l 229 694 l 352 694 l 530 688 q 566 561 566 646 q 526 403 566 424 q 444 316 444 330 l 449 316 l 546 321 q 566 178 566 285 l 566 158 q 510 16 566 16 l 444 10 l 326 10 l 112 0 q 0 123 0 0 l 0 174 q 112 362 0 300 l 133 388 l 133 393 l 46 393 q 16 520 20 403 l 16 571 q 51 688 16 644 m 123 668 q 66 561 66 661 l 66 505 q 87 418 66 460 q 224 444 181 444 l 229 444 l 229 429 q 81 255 210 395 q 51 148 51 190 q 112 41 51 41 l 240 31 l 260 31 q 500 66 500 31 q 515 168 515 111 l 515 199 l 510 286 l 505 286 l 362 260 l 336 265 l 336 275 q 515 530 515 454 l 515 561 q 439 668 515 668 l 326 673 l 123 668 z "},"{":{"ha":464,"x_min":0,"x_max":0,"o":""},"|":{"ha":361,"x_min":0,"x_max":0,"o":""},"}":{"ha":464,"x_min":0,"x_max":0,"o":""},"~":{"ha":811,"x_min":0,"x_max":0,"o":""},"Ä":{"ha":926,"x_min":0,"x_max":0,"o":""},"Å":{"ha":926,"x_min":0,"x_max":0,"o":""},"Ç":{"ha":1003,"x_min":0,"x_max":0,"o":""},"É":{"ha":926,"x_min":0,"x_max":0,"o":""},"Ñ":{"ha":1003,"x_min":0,"x_max":0,"o":""},"Ö":{"ha":1080,"x_min":0,"x_max":0,"o":""},"Ü":{"ha":1003,"x_min":0,"x_max":0,"o":""},"á":{"ha":772,"x_min":0,"x_max":0,"o":""},"à":{"ha":772,"x_min":0,"x_max":0,"o":""},"â":{"ha":772,"x_min":0,"x_max":0,"o":""},"ä":{"ha":772,"x_min":0,"x_max":0,"o":""},"ã":{"ha":772,"x_min":0,"x_max":0,"o":""},"å":{"ha":772,"x_min":0,"x_max":0,"o":""},"ç":{"ha":694,"x_min":0,"x_max":0,"o":""},"é":{"ha":772,"x_min":0,"x_max":0,"o":""},"è":{"ha":772,"x_min":0,"x_max":0,"o":""},"ê":{"ha":772,"x_min":0,"x_max":0,"o":""},"ë":{"ha":772,"x_min":0,"x_max":0,"o":""},"í":{"ha":386,"x_min":0,"x_max":0,"o":""},"ì":{"ha":386,"x_min":0,"x_max":0,"o":""},"î":{"ha":386,"x_min":0,"x_max":0,"o":""},"ï":{"ha":386,"x_min":0,"x_max":0,"o":""},"ñ":{"ha":772,"x_min":0,"x_max":0,"o":""},"ó":{"ha":772,"x_min":0,"x_max":0,"o":""},"ò":{"ha":772,"x_min":0,"x_max":0,"o":""},"ô":{"ha":772,"x_min":0,"x_max":0,"o":""},"ö":{"ha":772,"x_min":0,"x_max":0,"o":""},"õ":{"ha":772,"x_min":0,"x_max":0,"o":""},"ú":{"ha":772,"x_min":0,"x_max":0,"o":""},"ù":{"ha":772,"x_min":0,"x_max":0,"o":""},"û":{"ha":772,"x_min":0,"x_max":0,"o":""},"ü":{"ha":772,"x_min":0,"x_max":0,"o":""},"†":{"ha":772,"x_min":0,"x_max":0,"o":""},"°":{"ha":555,"x_min":0,"x_max":0,"o":""},"¢":{"ha":772,"x_min":0,"x_max":0,"o":""},"£":{"ha":772,"x_min":0,"x_max":0,"o":""},"§":{"ha":772,"x_min":0,"x_max":0,"o":""},"•":{"ha":486,"x_min":0,"x_max":0,"o":""},"¶":{"ha":746,"x_min":0,"x_max":0,"o":""},"ß":{"ha":848,"x_min":0,"x_max":0,"o":""},"®":{"ha":1023,"x_min":0,"x_max":0,"o":""},"©":{"ha":1023,"x_min":0,"x_max":0,"o":""},"™":{"ha":1389,"x_min":0,"x_max":0,"o":""},"´":{"ha":463,"x_min":0,"x_max":0,"o":""},"¨":{"ha":463,"x_min":0,"x_max":0,"o":""},"≠":{"ha":762,"x_min":0,"x_max":0,"o":""},"Æ":{"ha":1389,"x_min":0,"x_max":0,"o":""},"Ø":{"ha":1080,"x_min":0,"x_max":0,"o":""},"∞":{"ha":990,"x_min":0,"x_max":0,"o":""},"±":{"ha":762,"x_min":0,"x_max":0,"o":""},"≤":{"ha":762,"x_min":0,"x_max":0,"o":""},"≥":{"ha":762,"x_min":0,"x_max":0,"o":""},"¥":{"ha":772,"x_min":0,"x_max":0,"o":""},"µ":{"ha":800,"x_min":0,"x_max":0,"o":""},"∂":{"ha":686,"x_min":0,"x_max":0,"o":""},"∑":{"ha":990,"x_min":0,"x_max":0,"o":""},"∏":{"ha":1143,"x_min":0,"x_max":0,"o":""},"∫":{"ha":380,"x_min":0,"x_max":0,"o":""},"ª":{"ha":514,"x_min":0,"x_max":0,"o":""},"º":{"ha":507,"x_min":0,"x_max":0,"o":""},"Ω":{"ha":1067,"x_min":0,"x_max":0,"o":""},"æ":{"ha":1235,"x_min":0,"x_max":0,"o":""},"ø":{"ha":848,"x_min":0,"x_max":0,"o":""},"¿":{"ha":848,"x_min":0,"x_max":0,"o":""},"¡":{"ha":463,"x_min":0,"x_max":0,"o":""},"¬":{"ha":811,"x_min":0,"x_max":0,"o":""},"√":{"ha":762,"x_min":0,"x_max":0,"o":""},"ƒ":{"ha":772,"x_min":0,"x_max":0,"o":""},"≈":{"ha":762,"x_min":0,"x_max":0,"o":""},"∆":{"ha":850,"x_min":0,"x_max":0,"o":""},"«":{"ha":772,"x_min":0,"x_max":0,"o":""},"»":{"ha":772,"x_min":0,"x_max":0,"o":""},"…":{"ha":1389,"x_min":0,"x_max":0,"o":""},"À":{"ha":926,"x_min":0,"x_max":0,"o":""},"Ã":{"ha":926,"x_min":0,"x_max":0,"o":""},"Õ":{"ha":1080,"x_min":0,"x_max":0,"o":""},"Œ":{"ha":1389,"x_min":0,"x_max":0,"o":""},"œ":{"ha":1311,"x_min":0,"x_max":0,"o":""},"–":{"ha":772,"x_min":0,"x_max":0,"o":""},"—":{"ha":1389,"x_min":0,"x_max":0,"o":""},"“":{"ha":463,"x_min":0,"x_max":0,"o":""},"”":{"ha":463,"x_min":0,"x_max":0,"o":""},"‘":{"ha":309,"x_min":0,"x_max":0,"o":""},"’":{"ha":309,"x_min":0,"x_max":0,"o":""},"÷":{"ha":762,"x_min":0,"x_max":0,"o":""},"◊":{"ha":686,"x_min":0,"x_max":0,"o":""},"ÿ":{"ha":694,"x_min":0,"x_max":0,"o":""},"Ÿ":{"ha":926,"x_min":0,"x_max":0,"o":""},"⁄":{"ha":232,"x_min":0,"x_max":0,"o":""},"€":{"ha":772,"x_min":0,"x_max":0,"o":""},"‹":{"ha":463,"x_min":0,"x_max":0,"o":""},"›":{"ha":463,"x_min":0,"x_max":0,"o":""},"":{"ha":694,"x_min":0,"x_max":0,"o":""},"":{"ha":694,"x_min":0,"x_max":0,"o":""},"‡":{"ha":772,"x_min":0,"x_max":0,"o":""},"·":{"ha":386,"x_min":0,"x_max":0,"o":""},"‚":{"ha":309,"x_min":0,"x_max":0,"o":""},"„":{"ha":463,"x_min":0,"x_max":0,"o":""},"‰":{"ha":1389,"x_min":0,"x_max":0,"o":""},"Â":{"ha":926,"x_min":0,"x_max":0,"o":""},"Ê":{"ha":926,"x_min":0,"x_max":0,"o":""},"Á":{"ha":926,"x_min":0,"x_max":0,"o":""},"Ë":{"ha":926,"x_min":0,"x_max":0,"o":""},"È":{"ha":926,"x_min":0,"x_max":0,"o":""},"Í":{"ha":386,"x_min":0,"x_max":0,"o":""},"Î":{"ha":386,"x_min":0,"x_max":0,"o":""},"Ï":{"ha":386,"x_min":0,"x_max":0,"o":""},"Ì":{"ha":386,"x_min":0,"x_max":0,"o":""},"Ó":{"ha":1080,"x_min":0,"x_max":0,"o":""},"Ô":{"ha":1080,"x_min":0,"x_max":0,"o":""},"Ò":{"ha":1080,"x_min":0,"x_max":0,"o":""},"Ú":{"ha":1003,"x_min":0,"x_max":0,"o":""},"Û":{"ha":1003,"x_min":0,"x_max":0,"o":""},"Ù":{"ha":1003,"x_min":0,"x_max":0,"o":""},"ı":{"ha":386,"x_min":0,"x_max":0,"o":""},"ˆ":{"ha":463,"x_min":0,"x_max":0,"o":""},"˜":{"ha":463,"x_min":0,"x_max":0,"o":""},"ˉ":{"ha":463,"x_min":0,"x_max":0,"o":""},"˘":{"ha":463,"x_min":0,"x_max":0,"o":""},"˙":{"ha":463,"x_min":0,"x_max":0,"o":""},"˚":{"ha":463,"x_min":0,"x_max":0,"o":""},"¸":{"ha":463,"x_min":0,"x_max":0,"o":""},"˝":{"ha":463,"x_min":0,"x_max":0,"o":""},"˛":{"ha":463,"x_min":0,"x_max":0,"o":""},"ˇ":{"ha":463,"x_min":0,"x_max":0,"o":""},"Ł":{"ha":772,"x_min":0,"x_max":0,"o":""},"ł":{"ha":309,"x_min":0,"x_max":0,"o":""},"Š":{"ha":926,"x_min":0,"x_max":0,"o":""},"š":{"ha":694,"x_min":0,"x_max":0,"o":""},"Ž":{"ha":848,"x_min":0,"x_max":0,"o":""},"ž":{"ha":694,"x_min":0,"x_max":0,"o":""},"¦":{"ha":361,"x_min":0,"x_max":0,"o":""},"Ð":{"ha":1003,"x_min":0,"x_max":0,"o":""},"ð":{"ha":772,"x_min":0,"x_max":0,"o":""},"Ý":{"ha":926,"x_min":0,"x_max":0,"o":""},"ý":{"ha":694,"x_min":0,"x_max":0,"o":""},"Þ":{"ha":926,"x_min":0,"x_max":0,"o":""},"þ":{"ha":772,"x_min":0,"x_max":0,"o":""},"−":{"ha":811,"x_min":0,"x_max":0,"o":""},"×":{"ha":811,"x_min":0,"x_max":0,"o":""},"¹":{"ha":463,"x_min":0,"x_max":0,"o":""},"²":{"ha":463,"x_min":0,"x_max":0,"o":""},"³":{"ha":463,"x_min":0,"x_max":0,"o":""},"½":{"ha":1158,"x_min":0,"x_max":0,"o":""},"¼":{"ha":1158,"x_min":0,"x_max":0,"o":""},"¾":{"ha":1158,"x_min":0,"x_max":0,"o":""},"₣":{"ha":772,"x_min":0,"x_max":0,"o":""},"Ğ":{"ha":1080,"x_min":0,"x_max":0,"o":""},"ğ":{"ha":772,"x_min":0,"x_max":0,"o":""},"İ":{"ha":386,"x_min":0,"x_max":0,"o":""},"Ş":{"ha":926,"x_min":0,"x_max":0,"o":""},"ş":{"ha":694,"x_min":0,"x_max":0,"o":""},"Ć":{"ha":1003,"x_min":0,"x_max":0,"o":""},"ć":{"ha":694,"x_min":0,"x_max":0,"o":""},"Č":{"ha":1003,"x_min":0,"x_max":0,"o":""},"č":{"ha":694,"x_min":0,"x_max":0,"o":""},"đ":{"ha":772,"x_min":0,"x_max":0,"o":""},"¤":{"ha":772,"x_min":0,"x_max":0,"o":""},"¯":{"ha":767,"x_min":0,"x_max":0,"o":""},"Ā":{"ha":926,"x_min":0,"x_max":0,"o":""},"ā":{"ha":772,"x_min":0,"x_max":0,"o":""},"Ă":{"ha":926,"x_min":0,"x_max":0,"o":""},"ă":{"ha":772,"x_min":0,"x_max":0,"o":""},"Ą":{"ha":926,"x_min":0,"x_max":0,"o":""},"ą":{"ha":772,"x_min":0,"x_max":0,"o":""},"Ĉ":{"ha":1003,"x_min":0,"x_max":0,"o":""},"ĉ":{"ha":694,"x_min":0,"x_max":0,"o":""},"Ċ":{"ha":1003,"x_min":0,"x_max":0,"o":""},"ċ":{"ha":694,"x_min":0,"x_max":0,"o":""},"Ď":{"ha":1003,"x_min":0,"x_max":0,"o":""},"ď":{"ha":854,"x_min":0,"x_max":0,"o":""},"Đ":{"ha":1003,"x_min":0,"x_max":0,"o":""},"Ē":{"ha":926,"x_min":0,"x_max":0,"o":""},"ē":{"ha":772,"x_min":0,"x_max":0,"o":""},"Ĕ":{"ha":926,"x_min":0,"x_max":0,"o":""},"ĕ":{"ha":772,"x_min":0,"x_max":0,"o":""},"Ė":{"ha":926,"x_min":0,"x_max":0,"o":""},"ė":{"ha":772,"x_min":0,"x_max":0,"o":""},"Ę":{"ha":926,"x_min":0,"x_max":0,"o":""},"ę":{"ha":772,"x_min":0,"x_max":0,"o":""},"Ě":{"ha":926,"x_min":0,"x_max":0,"o":""},"ě":{"ha":772,"x_min":0,"x_max":0,"o":""},"Ĝ":{"ha":1080,"x_min":0,"x_max":0,"o":""},"ĝ":{"ha":772,"x_min":0,"x_max":0,"o":""},"Ġ":{"ha":1080,"x_min":0,"x_max":0,"o":""},"ġ":{"ha":772,"x_min":0,"x_max":0,"o":""},"Ģ":{"ha":1080,"x_min":0,"x_max":0,"o":""},"ģ":{"ha":772,"x_min":0,"x_max":0,"o":""},"Ĥ":{"ha":1003,"x_min":0,"x_max":0,"o":""},"ĥ":{"ha":772,"x_min":0,"x_max":0,"o":""},"Ħ":{"ha":1003,"x_min":0,"x_max":0,"o":""},"ħ":{"ha":772,"x_min":0,"x_max":0,"o":""},"Ĩ":{"ha":386,"x_min":0,"x_max":0,"o":""},"ĩ":{"ha":386,"x_min":0,"x_max":0,"o":""},"Ī":{"ha":386,"x_min":0,"x_max":0,"o":""},"ī":{"ha":386,"x_min":0,"x_max":0,"o":""},"Ĭ":{"ha":386,"x_min":0,"x_max":0,"o":""},"ĭ":{"ha":386,"x_min":0,"x_max":0,"o":""},"Į":{"ha":386,"x_min":0,"x_max":0,"o":""},"į":{"ha":309,"x_min":0,"x_max":0,"o":""},"Ĳ":{"ha":1021,"x_min":0,"x_max":0,"o":""},"ĳ":{"ha":616,"x_min":0,"x_max":0,"o":""},"Ĵ":{"ha":694,"x_min":0,"x_max":0,"o":""},"ĵ":{"ha":309,"x_min":0,"x_max":0,"o":""},"Ķ":{"ha":926,"x_min":0,"x_max":0,"o":""},"ķ":{"ha":694,"x_min":0,"x_max":0,"o":""},"ĸ":{"ha":694,"x_min":0,"x_max":0,"o":""},"Ĺ":{"ha":772,"x_min":0,"x_max":0,"o":""},"ĺ":{"ha":309,"x_min":0,"x_max":0,"o":""},"Ļ":{"ha":772,"x_min":0,"x_max":0,"o":""},"ļ":{"ha":309,"x_min":0,"x_max":0,"o":""},"Ľ":{"ha":772,"x_min":0,"x_max":0,"o":""},"ľ":{"ha":405,"x_min":0,"x_max":0,"o":""},"Ŀ":{"ha":772,"x_min":0,"x_max":0,"o":""},"ŀ":{"ha":464,"x_min":0,"x_max":0,"o":""},"Ń":{"ha":1003,"x_min":0,"x_max":0,"o":""},"ń":{"ha":772,"x_min":0,"x_max":0,"o":""},"Ņ":{"ha":1003,"x_min":0,"x_max":0,"o":""},"ņ":{"ha":772,"x_min":0,"x_max":0,"o":""},"Ň":{"ha":1003,"x_min":0,"x_max":0,"o":""},"ň":{"ha":772,"x_min":0,"x_max":0,"o":""},"ŉ":{"ha":839,"x_min":0,"x_max":0,"o":""},"Ŋ":{"ha":1004,"x_min":0,"x_max":0,"o":""},"ŋ":{"ha":772,"x_min":0,"x_max":0,"o":""},"Ō":{"ha":1080,"x_min":0,"x_max":0,"o":""},"ō":{"ha":772,"x_min":0,"x_max":0,"o":""},"Ŏ":{"ha":1080,"x_min":0,"x_max":0,"o":""},"ŏ":{"ha":772,"x_min":0,"x_max":0,"o":""},"Ő":{"ha":1080,"x_min":0,"x_max":0,"o":""},"ő":{"ha":772,"x_min":0,"x_max":0,"o":""},"Ŕ":{"ha":1003,"x_min":0,"x_max":0,"o":""},"ŕ":{"ha":463,"x_min":0,"x_max":0,"o":""},"Ŗ":{"ha":1003,"x_min":0,"x_max":0,"o":""},"ŗ":{"ha":463,"x_min":0,"x_max":0,"o":""},"Ř":{"ha":1003,"x_min":0,"x_max":0,"o":""},"ř":{"ha":463,"x_min":0,"x_max":0,"o":""},"Ś":{"ha":926,"x_min":0,"x_max":0,"o":""},"ś":{"ha":694,"x_min":0,"x_max":0,"o":""},"Ŝ":{"ha":926,"x_min":0,"x_max":0,"o":""},"ŝ":{"ha":694,"x_min":0,"x_max":0,"o":""},"Ţ":{"ha":848,"x_min":0,"x_max":0,"o":""},"ţ":{"ha":386,"x_min":0,"x_max":0,"o":""},"Ť":{"ha":848,"x_min":0,"x_max":0,"o":""},"ť":{"ha":521,"x_min":0,"x_max":0,"o":""},"Ŧ":{"ha":848,"x_min":0,"x_max":0,"o":""},"ŧ":{"ha":386,"x_min":0,"x_max":0,"o":""},"Ũ":{"ha":1003,"x_min":0,"x_max":0,"o":""},"ũ":{"ha":772,"x_min":0,"x_max":0,"o":""},"Ū":{"ha":1003,"x_min":0,"x_max":0,"o":""},"ū":{"ha":772,"x_min":0,"x_max":0,"o":""},"Ŭ":{"ha":1003,"x_min":0,"x_max":0,"o":""},"ŭ":{"ha":772,"x_min":0,"x_max":0,"o":""},"Ů":{"ha":1003,"x_min":0,"x_max":0,"o":""},"ů":{"ha":772,"x_min":0,"x_max":0,"o":""},"Ű":{"ha":1003,"x_min":0,"x_max":0,"o":""},"ű":{"ha":772,"x_min":0,"x_max":0,"o":""},"Ų":{"ha":1003,"x_min":0,"x_max":0,"o":""},"ų":{"ha":772,"x_min":0,"x_max":0,"o":""},"Ŵ":{"ha":1311,"x_min":0,"x_max":0,"o":""},"ŵ":{"ha":1003,"x_min":0,"x_max":0,"o":""},"Ŷ":{"ha":926,"x_min":0,"x_max":0,"o":""},"ŷ":{"ha":694,"x_min":0,"x_max":0,"o":""},"Ź":{"ha":848,"x_min":0,"x_max":0,"o":""},"ź":{"ha":694,"x_min":0,"x_max":0,"o":""},"Ż":{"ha":848,"x_min":0,"x_max":0,"o":""},"ż":{"ha":694,"x_min":0,"x_max":0,"o":""},"ſ":{"ha":309,"x_min":0,"x_max":0,"o":""},"Ǻ":{"ha":926,"x_min":0,"x_max":0,"o":""},"ǻ":{"ha":772,"x_min":0,"x_max":0,"o":""},"Ǽ":{"ha":1389,"x_min":0,"x_max":0,"o":""},"ǽ":{"ha":1235,"x_min":0,"x_max":0,"o":""},"Ǿ":{"ha":1080,"x_min":0,"x_max":0,"o":""},"ǿ":{"ha":848,"x_min":0,"x_max":0,"o":""},"΄":{"ha":463,"x_min":0,"x_max":0,"o":""},"΅":{"ha":463,"x_min":0,"x_max":0,"o":""},"Ά":{"ha":927,"x_min":0,"x_max":0,"o":""},"·":{"ha":386,"x_min":0,"x_max":0,"o":""},"Έ":{"ha":1089,"x_min":0,"x_max":0,"o":""},"Ή":{"ha":1164,"x_min":0,"x_max":0,"o":""},"Ί":{"ha":533,"x_min":0,"x_max":0,"o":""},"Ό":{"ha":1076,"x_min":0,"x_max":0,"o":""},"Ύ":{"ha":1188,"x_min":0,"x_max":0,"o":""},"Ώ":{"ha":1045,"x_min":0,"x_max":0,"o":""},"ΐ":{"ha":309,"x_min":0,"x_max":0,"o":""},"Α":{"ha":926,"x_min":0,"x_max":0,"o":""},"Β":{"ha":926,"x_min":0,"x_max":0,"o":""},"Γ":{"ha":765,"x_min":0,"x_max":0,"o":""},"Δ":{"ha":928,"x_min":0,"x_max":0,"o":""},"Ε":{"ha":926,"x_min":0,"x_max":0,"o":""},"Ζ":{"ha":848,"x_min":0,"x_max":0,"o":""},"Η":{"ha":1003,"x_min":0,"x_max":0,"o":""},"Θ":{"ha":1080,"x_min":0,"x_max":0,"o":""},"Ι":{"ha":386,"x_min":0,"x_max":0,"o":""},"Κ":{"ha":926,"x_min":0,"x_max":0,"o":""},"Λ":{"ha":928,"x_min":0,"x_max":0,"o":""},"Μ":{"ha":1157,"x_min":0,"x_max":0,"o":""},"Ν":{"ha":1003,"x_min":0,"x_max":0,"o":""},"Ξ":{"ha":903,"x_min":0,"x_max":0,"o":""},"Ο":{"ha":1080,"x_min":0,"x_max":0,"o":""},"Π":{"ha":1003,"x_min":0,"x_max":0,"o":""},"Ρ":{"ha":926,"x_min":0,"x_max":0,"o":""},"Σ":{"ha":859,"x_min":0,"x_max":0,"o":""},"Τ":{"ha":848,"x_min":0,"x_max":0,"o":""},"Υ":{"ha":926,"x_min":0,"x_max":0,"o":""},"Φ":{"ha":1108,"x_min":0,"x_max":0,"o":""},"Χ":{"ha":926,"x_min":0,"x_max":0,"o":""},"Ψ":{"ha":1160,"x_min":0,"x_max":0,"o":""},"Ω":{"ha":1038,"x_min":0,"x_max":0,"o":""},"Ϊ":{"ha":386,"x_min":0,"x_max":0,"o":""},"Ϋ":{"ha":926,"x_min":0,"x_max":0,"o":""},"ά":{"ha":803,"x_min":0,"x_max":0,"o":""},"έ":{"ha":619,"x_min":0,"x_max":0,"o":""},"ή":{"ha":772,"x_min":0,"x_max":0,"o":""},"ί":{"ha":309,"x_min":0,"x_max":0,"o":""},"ΰ":{"ha":760,"x_min":0,"x_max":0,"o":""},"α":{"ha":803,"x_min":0,"x_max":0,"o":""},"β":{"ha":799,"x_min":0,"x_max":0,"o":""},"γ":{"ha":694,"x_min":0,"x_max":0,"o":""},"δ":{"ha":773,"x_min":0,"x_max":0,"o":""},"ε":{"ha":619,"x_min":0,"x_max":0,"o":""},"ζ":{"ha":612,"x_min":0,"x_max":0,"o":""},"η":{"ha":772,"x_min":0,"x_max":0,"o":""},"θ":{"ha":772,"x_min":0,"x_max":0,"o":""},"ι":{"ha":309,"x_min":0,"x_max":0,"o":""},"κ":{"ha":694,"x_min":0,"x_max":0,"o":""},"λ":{"ha":694,"x_min":0,"x_max":0,"o":""},"μ":{"ha":800,"x_min":0,"x_max":0,"o":""},"ν":{"ha":694,"x_min":0,"x_max":0,"o":""},"ξ":{"ha":622,"x_min":0,"x_max":0,"o":""},"ο":{"ha":772,"x_min":0,"x_max":0,"o":""},"π":{"ha":958,"x_min":0,"x_max":0,"o":""},"ρ":{"ha":790,"x_min":0,"x_max":0,"o":""},"ς":{"ha":669,"x_min":0,"x_max":0,"o":""},"σ":{"ha":857,"x_min":0,"x_max":0,"o":""},"τ":{"ha":549,"x_min":0,"x_max":0,"o":""},"υ":{"ha":760,"x_min":0,"x_max":0,"o":""},"φ":{"ha":901,"x_min":0,"x_max":0,"o":""},"χ":{"ha":729,"x_min":0,"x_max":0,"o":""},"ψ":{"ha":990,"x_min":0,"x_max":0,"o":""},"ω":{"ha":1084,"x_min":0,"x_max":0,"o":""},"ϊ":{"ha":309,"x_min":0,"x_max":0,"o":""},"ϋ":{"ha":760,"x_min":0,"x_max":0,"o":""},"ό":{"ha":772,"x_min":0,"x_max":0,"o":""},"ύ":{"ha":760,"x_min":0,"x_max":0,"o":""},"ώ":{"ha":1084,"x_min":0,"x_max":0,"o":""},"Ё":{"ha":927,"x_min":0,"x_max":0,"o":""},"Ђ":{"ha":1201,"x_min":0,"x_max":0,"o":""},"Ѓ":{"ha":752,"x_min":0,"x_max":0,"o":""},"Є":{"ha":998,"x_min":0,"x_max":0,"o":""},"Ѕ":{"ha":926,"x_min":0,"x_max":0,"o":""},"І":{"ha":386,"x_min":0,"x_max":0,"o":""},"Ї":{"ha":386,"x_min":0,"x_max":0,"o":""},"Ј":{"ha":694,"x_min":0,"x_max":0,"o":""},"Љ":{"ha":1468,"x_min":0,"x_max":0,"o":""},"Њ":{"ha":1403,"x_min":0,"x_max":0,"o":""},"Ћ":{"ha":1186,"x_min":0,"x_max":0,"o":""},"Ќ":{"ha":809,"x_min":0,"x_max":0,"o":""},"Ў":{"ha":882,"x_min":0,"x_max":0,"o":""},"Џ":{"ha":998,"x_min":0,"x_max":0,"o":""},"А":{"ha":926,"x_min":0,"x_max":0,"o":""},"Б":{"ha":911,"x_min":0,"x_max":0,"o":""},"В":{"ha":926,"x_min":0,"x_max":0,"o":""},"Г":{"ha":752,"x_min":0,"x_max":0,"o":""},"Д":{"ha":941,"x_min":0,"x_max":0,"o":""},"Е":{"ha":926,"x_min":0,"x_max":0,"o":""},"Ж":{"ha":1282,"x_min":0,"x_max":0,"o":""},"З":{"ha":839,"x_min":0,"x_max":0,"o":""},"И":{"ha":998,"x_min":0,"x_max":0,"o":""},"Й":{"ha":998,"x_min":0,"x_max":0,"o":""},"К":{"ha":809,"x_min":0,"x_max":0,"o":""},"Л":{"ha":911,"x_min":0,"x_max":0,"o":""},"М":{"ha":1157,"x_min":0,"x_max":0,"o":""},"Н":{"ha":1003,"x_min":0,"x_max":0,"o":""},"О":{"ha":1080,"x_min":0,"x_max":0,"o":""},"П":{"ha":998,"x_min":0,"x_max":0,"o":""},"Р":{"ha":926,"x_min":0,"x_max":0,"o":""},"С":{"ha":1003,"x_min":0,"x_max":0,"o":""},"Т":{"ha":848,"x_min":0,"x_max":0,"o":""},"У":{"ha":882,"x_min":0,"x_max":0,"o":""},"Ф":{"ha":1056,"x_min":0,"x_max":0,"o":""},"Х":{"ha":926,"x_min":0,"x_max":0,"o":""},"Ц":{"ha":1027,"x_min":0,"x_max":0,"o":""},"Ч":{"ha":926,"x_min":0,"x_max":0,"o":""},"Ш":{"ha":1273,"x_min":0,"x_max":0,"o":""},"Щ":{"ha":1302,"x_min":0,"x_max":0,"o":""},"Ъ":{"ha":1099,"x_min":0,"x_max":0,"o":""},"Ы":{"ha":1230,"x_min":0,"x_max":0,"o":""},"Ь":{"ha":911,"x_min":0,"x_max":0,"o":""},"Э":{"ha":998,"x_min":0,"x_max":0,"o":""},"Ю":{"ha":1403,"x_min":0,"x_max":0,"o":""},"Я":{"ha":1003,"x_min":0,"x_max":0,"o":""},"а":{"ha":772,"x_min":0,"x_max":0,"o":""},"б":{"ha":795,"x_min":0,"x_max":0,"o":""},"в":{"ha":738,"x_min":0,"x_max":0,"o":""},"г":{"ha":507,"x_min":0,"x_max":0,"o":""},"д":{"ha":810,"x_min":0,"x_max":0,"o":""},"е":{"ha":772,"x_min":0,"x_max":0,"o":""},"ж":{"ha":929,"x_min":0,"x_max":0,"o":""},"з":{"ha":637,"x_min":0,"x_max":0,"o":""},"и":{"ha":776,"x_min":0,"x_max":0,"o":""},"й":{"ha":776,"x_min":0,"x_max":0,"o":""},"к":{"ha":608,"x_min":0,"x_max":0,"o":""},"л":{"ha":810,"x_min":0,"x_max":0,"o":""},"м":{"ha":955,"x_min":0,"x_max":0,"o":""},"н":{"ha":767,"x_min":0,"x_max":0,"o":""},"о":{"ha":772,"x_min":0,"x_max":0,"o":""},"п":{"ha":752,"x_min":0,"x_max":0,"o":""},"р":{"ha":772,"x_min":0,"x_max":0,"o":""},"с":{"ha":694,"x_min":0,"x_max":0,"o":""},"т":{"ha":636,"x_min":0,"x_max":0,"o":""},"у":{"ha":694,"x_min":0,"x_max":0,"o":""},"ф":{"ha":1143,"x_min":0,"x_max":0,"o":""},"х":{"ha":694,"x_min":0,"x_max":0,"o":""},"ц":{"ha":795,"x_min":0,"x_max":0,"o":""},"ч":{"ha":724,"x_min":0,"x_max":0,"o":""},"ш":{"ha":1114,"x_min":0,"x_max":0,"o":""},"щ":{"ha":1143,"x_min":0,"x_max":0,"o":""},"ъ":{"ha":868,"x_min":0,"x_max":0,"o":""},"ы":{"ha":998,"x_min":0,"x_max":0,"o":""},"ь":{"ha":724,"x_min":0,"x_max":0,"o":""},"э":{"ha":709,"x_min":0,"x_max":0,"o":""},"ю":{"ha":1042,"x_min":0,"x_max":0,"o":""},"я":{"ha":752,"x_min":0,"x_max":0,"o":""},"ё":{"ha":772,"x_min":0,"x_max":0,"o":""},"ђ":{"ha":772,"x_min":0,"x_max":0,"o":""},"ѓ":{"ha":507,"x_min":0,"x_max":0,"o":""},"є":{"ha":709,"x_min":0,"x_max":0,"o":""},"ѕ":{"ha":694,"x_min":0,"x_max":0,"o":""},"і":{"ha":309,"x_min":0,"x_max":0,"o":""},"ї":{"ha":386,"x_min":0,"x_max":0,"o":""},"ј":{"ha":309,"x_min":0,"x_max":0,"o":""},"љ":{"ha":1259,"x_min":0,"x_max":0,"o":""},"њ":{"ha":1128,"x_min":0,"x_max":0,"o":""},"ћ":{"ha":772,"x_min":0,"x_max":0,"o":""},"ќ":{"ha":608,"x_min":0,"x_max":0,"o":""},"ў":{"ha":694,"x_min":0,"x_max":0,"o":""},"џ":{"ha":767,"x_min":0,"x_max":0,"o":""},"Ґ":{"ha":679,"x_min":0,"x_max":0,"o":""},"ґ":{"ha":571,"x_min":0,"x_max":0,"o":""},"Ẁ":{"ha":1311,"x_min":0,"x_max":0,"o":""},"ẁ":{"ha":1003,"x_min":0,"x_max":0,"o":""},"Ẃ":{"ha":1311,"x_min":0,"x_max":0,"o":""},"ẃ":{"ha":1003,"x_min":0,"x_max":0,"o":""},"Ẅ":{"ha":1311,"x_min":0,"x_max":0,"o":""},"ẅ":{"ha":1003,"x_min":0,"x_max":0,"o":""},"Ỳ":{"ha":926,"x_min":0,"x_max":0,"o":""},"ỳ":{"ha":694,"x_min":0,"x_max":0,"o":""},"―":{"ha":1389,"x_min":0,"x_max":0,"o":""},"‗":{"ha":767,"x_min":0,"x_max":0,"o":""},"‛":{"ha":309,"x_min":0,"x_max":0,"o":""},"′":{"ha":260,"x_min":0,"x_max":0,"o":""},"″":{"ha":492,"x_min":0,"x_max":0,"o":""},"‼":{"ha":694,"x_min":0,"x_max":0,"o":""},"‾":{"ha":463,"x_min":0,"x_max":0,"o":""},"ⁿ":{"ha":507,"x_min":0,"x_max":0,"o":""},"₤":{"ha":772,"x_min":0,"x_max":0,"o":""},"₧":{"ha":1519,"x_min":0,"x_max":0,"o":""},"℅":{"ha":1230,"x_min":0,"x_max":0,"o":""},"ℓ":{"ha":449,"x_min":0,"x_max":0,"o":""},"№":{"ha":1490,"x_min":0,"x_max":0,"o":""},"℮":{"ha":833,"x_min":0,"x_max":0,"o":""},"⅛":{"ha":1158,"x_min":0,"x_max":0,"o":""},"⅜":{"ha":1158,"x_min":0,"x_max":0,"o":""},"⅝":{"ha":1158,"x_min":0,"x_max":0,"o":""},"⅞":{"ha":1158,"x_min":0,"x_max":0,"o":""},"←":{"ha":1389,"x_min":0,"x_max":0,"o":""},"↑":{"ha":694,"x_min":0,"x_max":0,"o":""},"→":{"ha":1389,"x_min":0,"x_max":0,"o":""},"↓":{"ha":694,"x_min":0,"x_max":0,"o":""},"↔":{"ha":1389,"x_min":0,"x_max":0,"o":""},"↕":{"ha":694,"x_min":0,"x_max":0,"o":""},"↨":{"ha":694,"x_min":0,"x_max":0,"o":""},"∟":{"ha":1360,"x_min":0,"x_max":0,"o":""},"∩":{"ha":998,"x_min":0,"x_max":0,"o":""},"≡":{"ha":810,"x_min":0,"x_max":0,"o":""},"⌂":{"ha":839,"x_min":0,"x_max":0,"o":""},"⌐":{"ha":811,"x_min":0,"x_max":0,"o":""},"⌠":{"ha":839,"x_min":0,"x_max":0,"o":""},"⌡":{"ha":839,"x_min":0,"x_max":0,"o":""},"─":{"ha":984,"x_min":0,"x_max":0,"o":""},"│":{"ha":868,"x_min":0,"x_max":0,"o":""},"┌":{"ha":984,"x_min":0,"x_max":0,"o":""},"┐":{"ha":984,"x_min":0,"x_max":0,"o":""},"└":{"ha":984,"x_min":0,"x_max":0,"o":""},"┘":{"ha":984,"x_min":0,"x_max":0,"o":""},"├":{"ha":984,"x_min":0,"x_max":0,"o":""},"┤":{"ha":984,"x_min":0,"x_max":0,"o":""},"┬":{"ha":984,"x_min":0,"x_max":0,"o":""},"┴":{"ha":984,"x_min":0,"x_max":0,"o":""},"┼":{"ha":984,"x_min":0,"x_max":0,"o":""},"═":{"ha":984,"x_min":0,"x_max":0,"o":""},"║":{"ha":984,"x_min":0,"x_max":0,"o":""},"╒":{"ha":984,"x_min":0,"x_max":0,"o":""},"╓":{"ha":984,"x_min":0,"x_max":0,"o":""},"╔":{"ha":984,"x_min":0,"x_max":0,"o":""},"╕":{"ha":984,"x_min":0,"x_max":0,"o":""},"╖":{"ha":984,"x_min":0,"x_max":0,"o":""},"╗":{"ha":984,"x_min":0,"x_max":0,"o":""},"╘":{"ha":984,"x_min":0,"x_max":0,"o":""},"╙":{"ha":984,"x_min":0,"x_max":0,"o":""},"╚":{"ha":984,"x_min":0,"x_max":0,"o":""},"╛":{"ha":984,"x_min":0,"x_max":0,"o":""},"╜":{"ha":984,"x_min":0,"x_max":0,"o":""},"╝":{"ha":984,"x_min":0,"x_max":0,"o":""},"╞":{"ha":984,"x_min":0,"x_max":0,"o":""},"╟":{"ha":984,"x_min":0,"x_max":0,"o":""},"╠":{"ha":984,"x_min":0,"x_max":0,"o":""},"╡":{"ha":984,"x_min":0,"x_max":0,"o":""},"╢":{"ha":984,"x_min":0,"x_max":0,"o":""},"╣":{"ha":984,"x_min":0,"x_max":0,"o":""},"╤":{"ha":984,"x_min":0,"x_max":0,"o":""},"╥":{"ha":984,"x_min":0,"x_max":0,"o":""},"╦":{"ha":984,"x_min":0,"x_max":0,"o":""},"╧":{"ha":984,"x_min":0,"x_max":0,"o":""},"╨":{"ha":984,"x_min":0,"x_max":0,"o":""},"╩":{"ha":984,"x_min":0,"x_max":0,"o":""},"╪":{"ha":984,"x_min":0,"x_max":0,"o":""},"╫":{"ha":984,"x_min":0,"x_max":0,"o":""},"╬":{"ha":984,"x_min":0,"x_max":0,"o":""},"▀":{"ha":984,"x_min":0,"x_max":0,"o":""},"▄":{"ha":984,"x_min":0,"x_max":0,"o":""},"█":{"ha":984,"x_min":0,"x_max":0,"o":""},"▌":{"ha":984,"x_min":0,"x_max":0,"o":""},"▐":{"ha":984,"x_min":0,"x_max":0,"o":""},"░":{"ha":984,"x_min":0,"x_max":0,"o":""},"▒":{"ha":984,"x_min":0,"x_max":0,"o":""},"▓":{"ha":1013,"x_min":0,"x_max":0,"o":""},"■":{"ha":839,"x_min":0,"x_max":0,"o":""},"□":{"ha":839,"x_min":0,"x_max":0,"o":""},"▪":{"ha":492,"x_min":0,"x_max":0,"o":""},"▫":{"ha":492,"x_min":0,"x_max":0,"o":""},"▬":{"ha":1389,"x_min":0,"x_max":0,"o":""},"▲":{"ha":1375,"x_min":0,"x_max":0,"o":""},"►":{"ha":1375,"x_min":0,"x_max":0,"o":""},"▼":{"ha":1375,"x_min":0,"x_max":0,"o":""},"◄":{"ha":1375,"x_min":0,"x_max":0,"o":""},"○":{"ha":839,"x_min":0,"x_max":0,"o":""},"●":{"ha":839,"x_min":0,"x_max":0,"o":""},"◘":{"ha":839,"x_min":0,"x_max":0,"o":""},"◙":{"ha":839,"x_min":0,"x_max":0,"o":""},"◦":{"ha":492,"x_min":0,"x_max":0,"o":""},"☺":{"ha":1418,"x_min":0,"x_max":0,"o":""},"☻":{"ha":1461,"x_min":0,"x_max":0,"o":""},"☼":{"ha":1273,"x_min":0,"x_max":0,"o":""},"♀":{"ha":1042,"x_min":0,"x_max":0,"o":""},"♂":{"ha":1042,"x_min":0,"x_max":0,"o":""},"♠":{"ha":738,"x_min":0,"x_max":0,"o":""},"♣":{"ha":911,"x_min":0,"x_max":0,"o":""},"♥":{"ha":825,"x_min":0,"x_max":0,"o":""},"♦":{"ha":709,"x_min":0,"x_max":0,"o":""},"♪":{"ha":694,"x_min":0,"x_max":0,"o":""},"♫":{"ha":1042,"x_min":0,"x_max":0,"o":""},"":{"ha":463,"x_min":0,"x_max":0,"o":""},"":{"ha":463,"x_min":0,"x_max":0,"o":""}}}
